<?xml version="1.0" encoding="UTF-8" standalone="no"?>
<!-- Created with Inkscape (http://www.inkscape.org/) -->

<svg
   version="1.1"
   id="svg185"
   width="888"
   height="255.60001"
   viewBox="0 0 888 255.60001"
   sodipodi:docname="climbing.svg"
   inkscape:version="1.2 (dc2aedaf03, 2022-05-15)"
   xmlns:inkscape="http://www.inkscape.org/namespaces/inkscape"
   xmlns:sodipodi="http://sodipodi.sourceforge.net/DTD/sodipodi-0.dtd"
   xmlns="http://www.w3.org/2000/svg"
   xmlns:svg="http://www.w3.org/2000/svg">
  <defs
     id="defs189" />
  <sodipodi:namedview
     id="namedview187"
     pagecolor="#ffffff"
     bordercolor="#666666"
     borderopacity="1.0"
     inkscape:showpageshadow="2"
     inkscape:pageopacity="0.0"
     inkscape:pagecheckerboard="0"
     inkscape:deskcolor="#d1d1d1"
     showgrid="false"
     inkscape:zoom="1.2646949"
     inkscape:cx="311.93294"
     inkscape:cy="9.8838068"
     inkscape:window-width="1914"
     inkscape:window-height="1046"
     inkscape:window-x="0"
     inkscape:window-y="0"
     inkscape:window-maximized="1"
     inkscape:current-layer="g191" />
  <g
     inkscape:groupmode="layer"
     inkscape:label="Image"
     id="g191">
    <rect
       style="opacity:0.2;fill:#000000;stroke-width:9.87698;stroke-linecap:round;stroke-linejoin:round;paint-order:markers fill stroke"
       id="rect163"
       width="207.50371"
       height="253.25972"
       x="1.3253917"
       y="0.86501902" />
    <rect
       style="opacity:0.2;fill:#000000;stroke-width:9.87698;stroke-linecap:round;stroke-linejoin:round;paint-order:markers fill stroke"
       id="rect163-3"
       width="207.50371"
       height="253.25972"
       x="226.65788"
       y="0.86501902" />
    <rect
       style="opacity:0.2;fill:#000000;stroke-width:9.87698;stroke-linecap:round;stroke-linejoin:round;paint-order:markers fill stroke"
       id="rect163-3-6"
       width="207.50371"
       height="253.25972"
       x="453.96344"
       y="0.86501902" />
    <rect
       style="opacity:0.2;fill:#000000;stroke-width:9.87698;stroke-linecap:round;stroke-linejoin:round;paint-order:markers fill stroke"
       id="rect163-3-6-7"
       width="207.50371"
       height="253.25972"
       x="678.83044"
       y="0.86501902" />
    <path
       style="fill:#ffffff;stroke-width:1.2"
       d="M 0,127.8 V 0 H 105 210 V 127.8 255.60001 H 105 0 Z m 207.6,0 V 2.4000001 H 105 2.4 V 127.8 253.20001 H 105 207.6 Z M 79.208927,234.02156 c -1.888939,-4.5603 -1.026861,-6.74718 2.96024,-7.50936 3.744298,-0.71576 6.630833,1.69309 6.630833,5.53353 0,6.27102 -7.197755,7.75381 -9.591073,1.97583 z m 6.915863,-3.39591 c 0.67168,-2.01505 -3.201052,-3.22939 -4.89542,-1.53501 -1.079077,1.07908 -0.989881,1.67422 0.380661,2.53983 2.128073,1.34407 3.860305,0.95853 4.514759,-1.00482 z M 47.6,234.40001 c -1.963701,-1.9637 -0.716516,-5.2 2.003945,-5.2 2.646891,0 3.057407,-1.12585 7.329057,-20.1 2.488812,-11.055 5.221918,-26.58 6.07357,-34.5 0.851654,-7.92 1.92119,-15.84147 2.376748,-17.60325 0.556307,-2.15141 -0.22968,-6.26845 -2.393633,-12.53798 -1.772058,-5.13412 -4.114669,-13.59292 -5.205805,-18.79733 L 55.8,116.19887 45.161004,111.66357 c -9.387481,-4.00178 -11.038126,-5.17655 -14.031946,-9.98655 -4.230637,-6.797121 -5.467496,-7.581674 -7.11107,-4.510626 -1.423106,2.659097 -5.364583,3.261666 -6.743272,1.030897 -0.476808,-0.771492 -0.993507,-4.260681 -1.148221,-7.753755 l -0.281298,-6.351045 5.967814,-2.973887 c 3.282299,-1.635638 6.695377,-2.694696 7.584619,-2.353462 2.977224,1.142468 2.927855,3.939278 -0.133763,7.577803 -1.817051,2.159443 -2.671322,4.22 -2.127842,5.132493 4.035902,6.776209 10.887263,14.525372 14.044559,15.884952 2.100679,0.90459 6.249416,2.69091 9.219416,3.9696 2.97,1.27869 6.886068,2.68309 8.702374,3.12091 1.816305,0.43781 7.013772,4.29717 11.549926,8.57634 7.21051,6.80204 8.441855,7.54622 9.792819,5.91841 0.849895,-1.02407 1.611573,-3.77141 1.692618,-6.10522 0.183269,-5.27753 5.170527,-9.17232 8.357864,-6.52707 1.032886,0.85722 1.605111,2.00008 1.271613,2.5397 -0.3335,0.53961 -0.08114,1.30572 0.560803,1.70246 2.221837,1.37317 -0.194704,4.24448 -3.572219,4.24448 -2.815192,0 -3.843014,0.91222 -6.08432,5.40001 -1.48329,2.97 -2.88223,5.4 -3.108758,5.4 -0.226526,0 -4.319952,-4.05 -9.0965,-9.00001 -4.776548,-4.95 -9.361872,-9 -10.189608,-9 -1.898438,0 -1.009524,7.07775 2.260675,18.00001 3.089571,10.31896 5.951707,16.8 7.419177,16.8 1.813972,0 21.906248,-10.33092 26.04865,-13.39353 l 3.648995,-2.69781 2.869051,2.94566 c 1.57798,1.62012 4.87979,6.99568 7.33736,11.94568 2.45758,4.95 5.59914,10.88569 6.98126,13.19041 1.38211,2.30473 2.52312,4.98707 2.53558,5.96075 0.0125,0.97368 1.28541,2.4016 2.82879,3.17316 1.6626,0.83115 2.28435,1.72532 1.52571,2.19418 -0.70425,0.43524 -2.90537,-0.41 -4.89139,-1.87833 -3.75389,-2.77537 -6.23841,-2.37049 -3.76225,0.61309 2.98238,3.59354 11.58062,3.2293 10.58342,-0.44836 -0.14391,-0.5307 0.27836,-0.99436 0.93836,-1.03036 1.83589,-0.1002 0.67919,5.02971 -1.51649,6.72546 -1.06823,0.825 -3.41982,1.5 -5.22577,1.5 -5.997,0 -11.2675,-10.23762 -5.98206,-11.6198 2.05971,-0.53863 1.65298,-1.80913 -4.28587,-13.38765 -8.36014,-16.29912 -9.02739,-17.01589 -13.321249,-14.30975 C 94.470852,143.01579 87.6,146.6789 81,150.02303 c -14.06984,7.12904 -14.399506,7.67769 -15.647591,26.04184 -0.438656,6.45432 -1.530865,14.43514 -2.427132,17.73514 -0.896267,3.3 -2.694204,11.4 -3.995417,18 -1.301211,6.6 -2.730518,12.945 -3.176236,14.1 -0.569304,1.47525 -0.225498,2.1 1.155651,2.1 2.620783,0 3.726432,3.18811 1.878042,5.41528 -1.481101,1.78462 -9.666895,2.50514 -11.187317,0.98472 z M 90,120.67083 c 0,-0.29105 -0.54,-0.86292 -1.2,-1.27083 -0.66,-0.4079 -1.2,-0.16977 -1.2,0.52918 0,0.69895 0.54,1.27082 1.2,1.27082 0.66,0 1.2,-0.23812 1.2,-0.52917 z M 23.044417,92.700004 c 0.557565,-2.78521 -0.315632,-8.70484 -1.280616,-8.681625 -0.420091,0.01008 -1.552329,0.517139 -2.516085,1.12674 -1.506345,0.952802 -1.453268,1.438775 0.378171,3.462492 1.388913,1.534732 1.685566,2.629084 0.852285,3.144081 -1.843444,1.13931 -1.571753,3.048312 0.433839,3.048312 0.941607,0 1.901189,-0.945 2.132406,-2.1 z M 29.31019,81.454687 C 28.532516,80.196385 26.4,81.206497 26.4,82.833162 c 0,0.600334 0.806898,0.781881 1.793107,0.403437 0.986209,-0.378444 1.488897,-1.180304 1.117083,-1.781912 z M 135.56926,212.34256 c -0.72335,-1.35158 -2.64684,-2.96373 -4.27444,-3.58254 -3.41622,-1.29884 -5.47355,-5.6762 -3.99564,-8.50149 1.27334,-2.43424 7.7819,-3.82067 10.67284,-2.2735 4.56244,2.44175 6.34554,13.51836 2.50687,15.57276 -3.13483,1.67771 -3.39598,1.61308 -4.90963,-1.21523 z m 3.65518,-8.87826 c -1.48244,-3.89913 -3.48968,-4.71237 -7.68972,-3.11552 -3.78201,1.43792 -3.13626,3.65123 1.06528,3.65123 2.58882,0 4.48211,1.49724 4.93163,3.9 0.0926,0.495 0.25229,1.305 0.35486,1.8 0.1026,0.495 0.71297,-0.002 1.35643,-1.10495 0.76198,-1.3058 0.75554,-3.09496 -0.0185,-5.13076 z m -115.10705,1.55664 c -2.50549,-7.18725 -1.057111,-11.82093 3.694946,-11.82093 2.896702,0 6.311004,5.39193 5.123246,8.09073 -0.510567,1.1601 -0.97494,2.5578 -1.031942,3.106 -0.11658,1.12116 -4.30234,4.40327 -5.615605,4.40327 -0.46929,0 -1.44608,-1.70058 -2.170645,-3.77907 z m 5.75638,-3.86883 c 1.845013,-2.22311 0.4047,-5.5521 -2.402157,-5.5521 -1.579785,0 -2.271613,0.85274 -2.271613,2.79999 0,4.43602 2.200752,5.73191 4.67377,2.75211 z m 149.06665,-8.20734 c -1.18168,-3.19443 -0.48769,-6.36269 1.81176,-8.27106 2.20697,-1.83163 6.44782,1.7676 6.44782,5.47229 0,5.39491 -6.48617,7.59276 -8.25958,2.79877 z M 184.8,189.07083 c 0,-1.91115 -2.17723,-3.69359 -3.22808,-2.64273 -0.98717,0.98716 0.55382,4.37191 1.99042,4.37191 0.68072,0 1.23766,-0.77813 1.23766,-1.72918 z m -38.86531,-50.92199 c -2.42403,-2.67853 -3.66861,-9.68345 -2.12801,-11.97725 1.7459,-2.5995 5.75812,-0.51243 7.96814,4.14485 1.84379,3.88551 1.85094,4.46551 0.0881,7.15589 -2.30533,3.51838 -3.25803,3.6271 -5.92827,0.67651 z M 150,133.12112 c 0,-2.3698 -2.51074,-5.99432 -3.6602,-5.2839 -1.65136,1.02059 -1.39923,5.05811 0.3602,5.76805 2.45652,0.99122 3.3,0.86748 3.3,-0.48415 z m 33.6,-18.95928 c 0,-1.231 1.08,-3.61117 2.4,-5.28928 1.32,-1.67811 2.4,-4.18093 2.4,-5.56183 0,-2.61564 0.90526,-3.00899 4.10185,-1.78234 2.7057,1.03828 2.38933,7.21133 -0.58356,11.38637 -2.91543,4.09435 -8.31829,4.90434 -8.31829,1.24708 z m 7.23366,-5.02472 c 0.72496,-1.35459 1.13216,-3.37959 0.90491,-4.5 -0.29706,-1.46456 -0.99293,-0.88916 -2.47588,2.04725 -2.40368,4.75957 -2.43241,4.91563 -0.90491,4.91563 0.63678,0 1.75092,-1.1083 2.47588,-2.46288 z M 55.200616,111.45186 C 47.099266,108.22141 40.715678,97.219507 40.559698,86.218715 40.416685,76.1324 42.597494,73.477871 55.752361,67.725875 68.39509,62.197813 79.089066,75.38555 77.714616,94.809573 c -0.303934,4.295262 -1.427652,9.501717 -2.497151,11.569897 -2.944903,5.69482 -12.428895,8.09812 -20.016849,5.07239 z M 69.78048,109.10342 C 73.47353,107.12695 75.6,100.58161 75.6,91.190741 c 0,-9.531925 -2.54603,-16.043572 -7.928351,-20.277307 -3.549965,-2.792404 -9.162048,-3.466487 -8.210256,-0.986159 0.413686,1.078049 -0.812863,1.527274 -4.170015,1.527274 -11.427774,0 -16.315125,13.677933 -9.628053,26.945455 2.208969,4.382716 7.644618,10.030426 10.736675,11.155556 3.159024,1.14949 10.874986,0.88875 13.38048,-0.45214 z m 42.32941,-11.235214 c -0.9135,-3.639665 0.13586,-5.468202 3.13807,-5.468202 2.42369,0 4.43746,4.796546 2.99419,7.131798 -1.49469,2.418458 -5.37171,1.366678 -6.13226,-1.663596 z M 116.4,96.000004 c 0,-0.66 -0.54,-1.2 -1.2,-1.2 -0.66,0 -1.2,0.54 -1.2,1.2 0,0.66 0.54,1.2 1.2,1.2 0.66,0 1.2,-0.54 1.2,-1.2 z m 39.54968,-3.060622 c -1.17225,-1.412484 -1.2673,-2.484638 -0.3493,-3.939966 2.04678,-3.244823 4.59962,-2.41198 4.59962,1.500588 0,4.084116 -1.95439,5.205797 -4.25032,2.439378 z M 159.6,90.670824 c 0,-0.291049 -0.54,-0.862918 -1.2,-1.270821 -0.66,-0.407902 -1.2,-0.169771 -1.2,0.52918 0,0.698951 0.54,1.270821 1.2,1.270821 0.66,0 1.2,-0.238131 1.2,-0.52918 z M 135.72692,68.526923 c -1.25019,-1.250194 -2.66217,-4.576118 -3.13773,-7.390943 -0.76199,-4.51015 -0.5277,-5.377007 1.97307,-7.300237 3.05717,-2.351127 6.49467,-2.885276 7.55255,-1.173584 0.36105,0.584187 0.0413,2.826756 -0.71053,4.98349 -1.15141,3.302933 -1.05452,4.149809 0.61436,5.370133 2.51808,1.841264 2.56833,6.102205 0.0832,7.055834 -2.95611,1.134371 -3.93243,0.897803 -6.37492,-1.544693 z m 2.81867,-4.987041 c -1.85417,-2.048828 -2.00753,-3.039912 -0.91735,-5.928129 1.22101,-3.23482 1.15649,-3.372746 -0.9596,-2.051225 -2.75769,1.722205 -2.94866,5.988029 -0.38292,8.55376 2.80398,2.803981 4.84726,2.284628 2.25987,-0.574406 z M 99.542237,43.838103 C 97.264007,41.54906 94.563,39.65906 93.54,39.638103 90.575348,39.577373 88.8,37.027732 88.8,32.830822 c 0,-4.792747 0.810263,-5.314256 9.477818,-6.100202 6.467142,-0.586419 7.083422,-0.412709 9.518512,2.683013 4.27918,5.440096 2.91804,18.586369 -1.92439,18.586369 -1.20311,0 -4.05147,-1.872855 -6.329703,-4.161899 z m 8.759143,-3.938101 c 0.8424,-6.721771 -1.86523,-11.062497 -6.90138,-11.063935 -2.087992,-5.96e-4 -2.011372,0.195939 0.58937,1.511765 3.16354,1.600571 4.5675,5.175295 2.74742,6.995383 -0.65105,0.65105 -2.74528,0.505707 -5.21254,-0.361759 -4.092475,-1.438874 -4.101137,-1.457361 -1.12425,-2.399513 2.44561,-0.774007 2.27073,-0.845419 -0.946338,-0.386436 -3.226,0.460258 -4.120849,0.09128 -4.902382,-2.021401 -1.18848,-3.212765 -2.685903,-1.148111 -1.753437,2.417646 0.470899,1.800721 1.611391,2.608249 3.683696,2.608249 1.650894,0 4.846703,1.620001 7.101801,3.600001 2.25509,1.98 4.5623,3.6 5.12713,3.6 0.56482,0 1.28074,-2.025 1.59091,-4.5 z M 97.5,29.205264 c -0.825,-0.332894 -2.175,-0.332894 -3,0 -0.825,0.332896 -0.15,0.605263 1.5,0.605263 1.65,0 2.325,-0.272367 1.5,-0.605263 z M 37.985986,33.805512 C 35.512982,31.072876 35.428591,27.168096 37.8,25.200001 c 1.307756,-1.085341 2.22973,-1.137223 3.371404,-0.189718 0.864272,0.717282 3.158724,1.188402 5.098782,1.046933 2.873786,-0.209556 3.601058,0.261407 3.925024,2.541743 0.876996,6.172995 -7.934151,9.930458 -12.209224,5.206553 z m 8.11587,-3.333898 C 47.145835,30.071002 48,29.242003 48,28.629394 c 0,-0.612609 -1.137974,-0.504809 -2.528831,0.239556 -1.828827,0.978758 -2.891775,0.990445 -3.84,0.04222 -1.988881,-1.988877 -3.738108,-1.5679 -2.031169,0.488835 1.600638,1.928651 3.466888,2.23624 6.501856,1.071613 z M 177.08572,26.914286 c -3.96224,-3.962231 -0.3504,-12.109672 4.925,-11.109642 3.05578,0.579269 3.64304,7.662977 0.8877,10.707605 -2.51416,2.778105 -3.37697,2.837782 -5.8127,0.402037 z m 5.9789,-5.418844 c 0.44345,-0.717507 0.29561,-1.81521 -0.32851,-2.439339 -1.50639,-1.506375 -5.13611,-0.04187 -5.13611,2.072285 0,1.969722 4.29578,2.258267 5.46462,0.367054 z m 43.08857,232.604568 c -0.31433,-0.825 -0.43237,-58.2 -0.26235,-127.50001 L 226.2,0.60000002 330.9,0.2934091 435.6,-0.01318183 V 127.79342 255.60001 H 331.16234 c -82.44534,0 -104.55801,-0.31586 -105.00915,-1.5 z M 379.2,248.08457 c 0,-4.15394 -0.5075,-5.33811 -2.7,-6.3 -1.485,-0.65151 -2.87256,-2.39956 -3.08346,-3.88456 -0.3123,-2.19898 0.18871,-2.7 2.7,-2.7 2.62607,0 3.08346,-0.53401 3.08346,-3.6 0,-2.04467 -1.07698,-4.67698 -2.49278,-6.09279 -1.37103,-1.37102 -2.19224,-3.27598 -1.8249,-4.23325 0.70167,-1.82855 -3.81762,-19.24203 -7.90888,-30.47396 -10.09806,-27.72268 -13.00741,-37.45312 -14.09242,-47.13267 -0.64934,-5.79296 -0.95186,-11.19296 -0.67225,-12 0.27961,-0.80703 -1.22797,-2.54733 -3.35019,-3.86734 -5.6405,-3.50833 -9.54028,-11.78405 -8.91201,-18.91215 0.2769,-3.14169 1.43118,-6.73728 2.56507,-7.99021 2.11601,-2.338167 11.97416,-6.097636 15.98933,-6.097636 3.01283,0 8.03442,5.429066 10.84924,11.729606 l 2.29169,5.1296 3.19858,-4.83341 c 1.75924,-2.65837 3.63101,-6.856689 4.15952,-9.329598 0.87612,-4.099439 1.29567,-4.480834 4.7545,-4.322082 l 3.79361,0.174115 -0.69452,-9.174115 c -0.46737,-6.173446 -1.44012,-10.237588 -2.97406,-12.425526 -2.89619,-4.130973 -2.8977,-7.18523 -0.005,-8.992092 3.30483,-2.063892 3.41151,-14.209648 0.14932,-16.999427 -3.42336,-2.927609 -3.65863,-6.778 -0.40762,-6.670733 2.24274,0.07399 2.73317,-0.759919 3.43104,-5.834039 0.55497,-4.035027 0.30526,-6.87146 -0.78411,-8.906962 -1.39872,-2.613542 -1.33118,-3.181959 0.54078,-4.550762 2.50374,-1.830527 2.2678,-2.007415 -6.40414,-4.801633 -3.63,-1.169637 -12.72834,-4.481537 -20.21854,-7.3597787 L 346.56292,2.4000001 h -17.39218 c -15.57516,0 -17.71096,0.2507382 -20.4433,2.4000001 -4.24234,3.3370301 -14.4691,3.3370301 -18.051,0 -2.4339,-2.2675257 -4.23478,-2.4000001 -32.62627,-2.4000001 H 228 V 127.8 253.20001 h 75.6 75.6 z M 434.4,127.8 V 2.4000001 H 412.8 391.2 L 391.04686,10.5 c -0.0842,4.455001 -0.33887,9.450001 -0.56586,11.100001 -2.05174,14.913906 -2.26244,59.484593 -0.3275,69.27633 1.12536,5.694902 1.14668,8.125312 0.0894,10.199999 -1.8606,3.65121 -3.05538,24.52713 -1.46016,25.51303 1.86338,1.15163 1.44683,7.96795 -0.62697,10.25947 -2.92181,3.22857 -4.93113,22.7659 -2.95665,28.74862 1.23417,3.73957 1.28122,5.79857 0.21256,9.30256 -3.24956,10.6548 -3.99971,32.7 -1.11272,32.7 4.17097,0 6.18351,12.94567 2.716,17.47064 -1.74699,2.27977 -1.83856,2.26551 -4.30215,-0.67064 l -2.51717,-3 0.68578,3 c 0.37717,1.65 0.69315,8.805 0.70216,15.9 l 0.0164,12.9 H 408 434.4 Z M 378,238.80001 c 0,-0.66 -0.57187,-1.2 -1.27082,-1.2 -0.69896,0 -0.93708,0.54 -0.52918,1.2 0.4079,0.66 0.97978,1.2 1.27082,1.2 0.29105,0 0.52918,-0.54 0.52918,-1.2 z m 8.38163,-20.1 c -0.0176,-4.30855 -1.64693,-8.65309 -2.79969,-7.46525 -1.03603,1.06758 -1.22889,6.56732 -0.3249,9.26525 1.40376,4.18945 3.14495,3.18639 3.12459,-1.8 z m -8.11097,-6.6 c -1.66044,-1.89235 -1.64626,-2.31699 0.14335,-4.29449 3.06239,-3.3839 2.55305,-9.15793 -1.01401,-11.49516 -4.28256,-2.80604 -4.10479,-7.62382 0.3,-8.13065 2.94785,-0.33918 3.33916,-0.91946 3.66695,-5.43774 0.27223,-3.75248 -0.32345,-5.99186 -2.30783,-8.67587 -2.56402,-3.46801 -2.58716,-3.71463 -0.55903,-5.95568 2.30337,-2.54521 2.35703,-2.39602 -4.03109,-11.21041 -5.90327,-8.1454 -5.45802,-8.52513 -9.13055,7.78719 l -2.0909,9.2872 4.34852,11.1128 c 2.39169,6.11205 4.90753,13.81281 5.59078,17.11281 0.68324,3.3 2.13378,8.40865 3.22341,11.35256 1.64259,4.43785 2.12828,4.95053 2.8421,3 0.53862,-1.47181 0.17109,-3.13875 -0.9817,-4.45256 z M 378.725,191.125 c -1.21982,-1.21981 -2.2263,0.61667 -1.22546,2.23606 0.75604,1.2233 1.0387,1.22425 1.44516,0.005 0.27792,-0.83375 0.17905,-1.84216 -0.2197,-2.2409 z M 384,171.00001 c 0,-1.70001 -0.69334,-3 -1.6,-3 -2.53411,0 -3.21344,1.33266 -1.91556,3.75777 1.69772,3.17223 3.51556,2.78039 3.51556,-0.75777 z m -21.14927,-6.3 c 0.33685,-1.155 1.2535,-5.475 2.03699,-9.6 0.78349,-4.125 1.85011,-7.5 2.37026,-7.5 2.66428,0 5.07956,1.98318 8.91196,7.31761 2.32434,3.23532 4.76696,5.88239 5.42807,5.88239 1.90716,0 1.39676,-5.89998 -0.83761,-9.68247 -1.96407,-3.3249 -1.94253,-3.55609 0.58154,-6.24284 3.67576,-3.91266 4.42454,-9.22507 1.77355,-12.58284 l -2.1381,-2.70814 -6.18231,5.40814 c -3.40028,2.97449 -6.7917,5.40815 -7.53651,5.40815 -0.7448,0 -3.47115,-1.08 -6.05857,-2.4 -2.58742,-1.32 -4.9959,-2.4 -5.35219,-2.4 -1.51015,0 -0.45973,11.63674 1.89954,21.04342 2.50799,9.99968 3.89711,12.19264 5.10338,8.05658 z m 12.04191,-33.31802 c 3.90094,-3.6201 7.81594,-6.58199 8.7,-6.58199 2.02291,0 2.0827,-4.05607 0.1074,-7.28285 -1.26578,-2.06767 -1.17208,-2.63659 0.6,-3.64335 4.33482,-2.4627 1.89757,-14.027953 -3,-14.235633 -0.495,-0.02099 -0.90514,0.636833 -0.9114,1.461833 -0.006,0.825 -2.16628,4.89671 -4.8,9.04824 -2.63378,4.15153 -4.78864,8.48637 -4.78864,9.63299 0,4.60407 -6.03034,11.01878 -10.35853,11.01878 -4.81854,0 -4.32743,2.37453 0.97835,4.73038 2.8491,1.26504 5.45018,2.33013 5.78018,2.36684 0.33,0.0367 3.79169,-2.89515 7.69264,-6.51524 z M 387.6,130.20001 c 0,-0.99 -0.50813,-1.8 -1.12918,-1.8 -1.51317,0 -2.59692,1.8739 -1.6382,2.83262 1.35143,1.35142 2.76738,0.82307 2.76738,-1.03262 z m -24.66481,-2.54119 c 2.34219,-0.89877 4.32897,-4.42264 5.55273,-9.84866 1.36461,-6.05047 -1.60162,-14.70355 -6.20763,-18.10892 -3.46896,-2.564707 -4.17072,-2.669924 -8.72631,-1.308338 -9.20422,2.750988 -10.20336,3.583268 -11.04583,9.201328 -1.9341,12.8975 9.59442,24.22147 20.42704,20.06459 z M 388.8,97.729183 c 0,-0.951049 -1.08,-1.729179 -2.4,-1.729179 -2.69975,0 -3.07777,1.242231 -1.0079,3.312097 1.6542,1.654199 3.4079,0.839629 3.4079,-1.582918 z m -2.80526,-32.02918 c -0.3329,-0.825 -0.60527,-0.15 -0.60527,1.5 0,1.65 0.27237,2.325 0.60527,1.5 0.33289,-0.825 0.33289,-2.175 0,-3 z m 0.25152,-23.820411 c -2.99439,-1.89682 -3.85442,-1.119577 -1.56293,1.412482 1.45703,1.610004 2.42411,1.985621 2.73224,1.061215 0.26232,-0.786972 -0.26387,-1.900135 -1.16931,-2.473697 z M 388.8,8.4000003 V 2.4000001 l -17.1,0.036491 c -10.27768,0.021932 -16.38186,0.4524323 -15.3,1.0790388 1.43338,0.8302027 15.85614,6.3249165 26.4,10.0577451 5.09288,1.803028 6,1.020905 6,-5.1732747 z M 306,3.6000001 c 1.25975,-0.8141082 -0.65242,-1.1687646 -6.37082,-1.1816246 -5.1459,-0.011573 -7.89626,0.4258766 -7.42918,1.1816246 0.9478,1.5335748 11.42696,1.5335748 13.8,0 z M 452.4,127.8 V 0 h 105 105 v 127.8 127.80001 h -105 -105 z m 170.83396,123.60001 c -0.37991,-0.99 -1.57796,-1.83655 -2.66235,-1.88122 -1.50457,-0.0619 -1.37109,-0.37224 0.56347,-1.30978 2.24948,-1.09016 2.50426,-2.12883 2.2614,-9.21879 -0.15054,-4.39461 -0.34633,-10.28521 -0.43509,-13.09021 -0.11244,-3.55161 -0.68333,-5.1 -1.88052,-5.1 -3.05173,0 -3.54325,-4.75313 -0.79414,-7.67944 3.11159,-3.31213 3.61001,-13.57502 0.71327,-14.68661 -2.29487,-0.88063 -2.29086,-3.36925 0.0108,-6.88249 2.14316,-3.27087 1.66498,-10.60164 -0.74198,-11.37503 -2.3783,-0.76417 -3.51383,-2.85631 -2.79886,-5.15672 0.33852,-1.08916 -0.72632,-5.40916 -2.3663,-9.6 -1.63998,-4.19085 -4.1663,-11.6151 -5.61401,-16.49836 -1.71634,-5.78925 -4.8235,-12.07824 -8.92977,-18.07405 -3.46363,-5.05747 -7.96453,-12.49775 -10.002,-16.53394 -2.03745,-4.03619 -4.36294,-7.74549 -5.16775,-8.24289 -0.8048,-0.4974 -4.011,-0.76913 -7.12488,-0.60386 C 567.84361,106.01977 561.6,100.19477 561.6,89.918419 c 0,-4.236798 0.73556,-5.736334 4.81483,-9.815605 4.36397,-4.363965 5.25502,-4.755796 9.51551,-4.184345 5.43439,0.728905 12.63942,5.781957 15.1404,10.618321 2.26295,4.37606 2.20067,10.656164 -0.13878,13.99621 -2.42263,3.45878 -1.00343,3.47934 8.91703,0.12915 6.54804,-2.211311 8.00628,-3.28781 11.33301,-8.366258 4.1504,-6.335828 6.3069,-7.813931 8.6107,-5.901939 1.83023,1.51895 2.97456,-4.27039 2.99409,-15.147584 0.0108,-6.289558 -0.3751,-7.61146 -2.67031,-9.135424 -2.22668,-1.478461 -2.42601,-2.092071 -1.17087,-3.604417 1.2852,-1.54858 0.83165,-2.090019 -3.01649,-3.60099 -9.22233,-3.621153 -40.13324,-13.10142 -40.73988,-12.494778 -0.34533,0.345335 2.0876,2.00392 5.40652,3.685744 5.89141,2.985405 8.78143,5.503498 6.31637,5.503498 -0.67624,0 -4.6231,-1.83577 -8.77083,-4.079487 C 568.85855,42.498984 565.2,41.31033 565.2,43.315913 c 0,3.592206 -4.23372,10.540978 -7.65299,12.56079 -2.30037,1.358868 -6.16629,2.229799 -10.05583,2.265424 -5.61052,0.05138 -6.64352,-0.345627 -9.2164,-3.542125 -3.87082,-4.809049 -6.17629,-13.122658 -4.75768,-17.156431 0.60285,-1.714215 2.77578,-4.09774 4.82871,-5.296723 3.23223,-1.88772 5.37685,-2.072214 15.99751,-1.376201 12.17668,0.797985 12.26088,0.82476 11.7069,3.722698 -0.5288,2.766275 -0.33028,2.876813 3.79589,2.113586 2.39464,-0.442939 7.20538,-1.762455 10.69053,-2.93226 3.48516,-1.169804 6.61192,-1.681503 6.94838,-1.13711 0.63395,1.025746 -4.62204,3.554264 -10.88502,5.236496 l -3.6,0.966959 5.4,1.405684 c 3.10529,0.808343 6.92981,1.016108 9,0.488921 1.98,-0.50422 9.47248,-2.314534 16.64995,-4.02292 7.17748,-1.708386 14.60248,-3.908995 16.5,-4.890244 4.35383,-2.251451 4.53323,-6.286508 0.45005,-10.122456 -3.21416,-3.019546 -3.94856,-5.975866 -1.5,-6.038164 0.825,-0.02099 2.46211,-0.768032 3.63802,-1.660092 1.807,-1.370815 1.91902,-2.10256 0.72357,-4.7263 -1.10717,-2.4299679 -1.08205,-3.5048757 0.11556,-4.9479473 1.37407,-1.6556545 -7.2009,-1.8121764 -84.12357,-1.5355366 L 454.2,3.0000001 453.8908,126.6 c -0.17008,67.98001 -0.052,124.27501 0.26233,125.10001 0.44977,1.18042 18.59637,1.5 85.17155,1.5 74.70698,0 84.51922,-0.21049 83.90928,-1.8 z M 628.8,250.12919 c 0,-0.95105 -0.81,-1.72918 -1.8,-1.72918 -2.01878,0 -2.10058,0.22042 -1.07426,2.89496 0.843,2.19682 2.87426,1.37295 2.87426,-1.16578 z M 660,127.8 V 2.4000001 H 643.955 627.91 l -0.76817,6.9000003 c -0.88921,7.9871666 -2.4003,51.0503736 -2.48436,70.8000096 -0.0316,7.425005 -0.44829,13.500006 -0.92596,13.500001 -1.06381,-9e-6 -0.29616,18.972579 0.88672,21.915279 0.46985,1.16888 0.19163,2.9089 -0.62187,3.8891 -1.61625,1.94746 -0.6795,12.03177 1.22712,13.21012 0.63294,0.39119 0.55881,2.02733 -0.17799,3.92798 -1.84609,4.76215 -2.03051,34.01614 -0.21882,34.71091 2.46481,0.94521 3.32081,7.74482 1.12938,8.9712 -1.61416,0.90332 -1.87056,3.40262 -1.64382,16.02284 0.19889,11.07021 0.6606,14.95257 1.77821,14.95257 0.98911,0 1.50956,1.86175 1.50956,5.4 0,2.97 -0.54,5.4 -1.2,5.4 -0.71672,0 -1.2,4.6428 -1.2,11.52839 0,9.70179 0.2823,11.42006 1.7817,10.84469 2.27082,-0.87141 4.60451,3.31965 3.60391,6.47224 -0.71549,2.25431 -0.10452,2.35468 14.33352,2.35468 H 660 Z m -34.61734,88.17043 c -0.56504,-4.02177 -1.10866,-4.3587 -3.37532,-2.09205 -2.36693,2.36693 -1.22855,6.06084 1.68904,5.48074 1.47517,-0.29332 1.97894,-1.30567 1.68628,-3.38869 z M 625.2,176.40001 c 0,-1.57568 -0.8,-2.4 -2.32918,-2.4 -2.63718,0 -4.17878,1.80727 -3.07082,3.6 1.38311,2.23791 5.4,1.34527 5.4,-1.2 z m -3.6,-8.31202 c 0,-3.53356 -0.5252,-4.81315 -2.1,-5.11643 -1.39373,-0.2684 -2.1531,-1.60964 -2.25788,-3.98799 -0.0869,-1.97096 -0.5718,-7.24874 -1.07771,-11.7284 -0.77619,-6.87291 -1.40742,-8.48188 -4.04212,-10.30323 -6.0188,-4.16075 -6.24709,-4.0863 -3.86569,1.26063 1.2707,2.85309 3.93236,10.31744 5.9148,16.58744 6.1553,19.46785 7.4286,21.74547 7.4286,13.28798 z m -0.50057,-27.26159 c -0.34326,-0.89451 -1.25915,-1.62639 -2.03529,-1.62639 -1.56,0 -0.71813,14.50557 0.99528,17.14892 1.05012,1.62006 2.02644,-12.95192 1.04001,-15.52253 z m 1.48855,-4.79096 c -0.21338,-1.08052 -1.63035,-2.42325 -3.14881,-2.98384 -2.05653,-0.75924 -2.54459,-0.64073 -1.91316,0.46457 2.64214,4.62504 5.78695,6.19015 5.06197,2.51927 z m -7.66236,-3.30453 c -0.94959,-3.78349 1.41266,-5.12073 4.34999,-2.46247 2.26267,2.04768 2.32439,1.97506 2.32439,-2.73552 0,-2.83744 -0.74455,-5.45696 -1.8,-6.33292 -0.99,-0.82162 -1.8,-2.77774 -1.8,-4.34693 0,-1.87736 -0.71816,-2.88884 -2.1,-2.95766 -9.31951,-0.46419 -14.98622,-1.30285 -19.45398,-2.87917 -2.87122,-1.01302 -5.38686,-1.6754 -5.59031,-1.47195 -0.20345,0.20345 1.63578,3.70018 4.08719,7.77051 3.23633,5.37362 6.57548,8.89121 12.19144,12.84291 4.25389,2.99326 7.90917,5.4423 8.12286,5.4423 0.21369,0 0.0644,-1.2911 -0.33158,-2.8691 z M 622.8,117 c 0,-0.99 -0.54,-1.8 -1.2,-1.8 -0.66,0 -1.2,0.81 -1.2,1.8 0,0.99 0.54,1.8 1.2,1.8 0.66,0 1.2,-0.81 1.2,-1.8 z m -5.1,-6.1472 3.9,-0.56155 -0.0377,-7.44562 c -0.0337,-6.644713 -0.37898,-7.694609 -3.21031,-9.760279 l -3.17259,-2.314653 -1.8897,2.912296 c -3.50157,5.396428 -7.14762,7.883736 -14.73675,10.053356 L 591,105.89561 l 4.14916,1.75731 c 6.6885,2.8328 15.96169,4.14863 22.55084,3.19988 z m -31.2,-10.03964 c 3.23108,-1.970031 3.9,-3.114813 3.9,-6.674408 0,-5.695531 -1.54295,-8.302851 -7.44242,-12.576405 -6.35489,-4.60346 -10.88506,-4.619485 -15.44988,-0.05465 -2.74797,2.747955 -3.5077,4.584405 -3.5077,8.478886 0,2.734159 0.55357,6.005565 1.23017,7.269791 3.12779,5.844326 14.42075,7.732756 21.26983,3.556786 z m 36.3,-9.48477 c 0,-1.216425 -3.65495,-2.873443 -4.49191,-2.036471 -0.30163,0.301625 -0.19247,1.124337 0.24257,1.828247 0.95737,1.549059 4.24934,1.71037 4.24934,0.208224 z M 554.2659,54.513645 c 6.59021,-2.636877 10.06286,-11.979768 6.18811,-16.648566 -1.92279,-2.316819 -9.61836,-4.797037 -10.84297,-3.494601 -0.5324,0.566238 -1.20976,4.809524 -1.50523,9.429524 -0.29547,4.62 -0.94792,9.345 -1.4499,10.5 -1.16949,2.690871 1.24909,2.75877 7.60999,0.213643 z m 69.04199,-9.640732 c 0.46086,-5.679899 0.64871,-10.516314 0.41743,-10.747589 -0.23128,-0.231275 -4.44908,0.821439 -9.37291,2.339363 -4.92383,1.517926 -12.60486,3.484889 -17.06897,4.371031 -4.46411,0.886142 -7.70411,1.98529 -7.2,2.442552 0.50411,0.457263 6.85656,2.849216 14.11656,5.315454 7.26,2.466236 14.01,4.945143 15,5.508681 3.07774,1.751945 3.24787,1.369686 4.10789,-9.229492 z m -79.60605,-5.398691 c -1.05715,-2.642799 -1.15584,-2.67293 -1.22577,-0.374221 -0.0419,1.375001 0.28393,2.860001 0.72393,3.3 1.43325,1.433253 1.67702,0.01208 0.50184,-2.925779 z M 537.6,39.458361 c 0,-0.66 -0.54,-0.866262 -1.2,-0.458359 -0.66,0.407902 -1.2,1.28164 -1.2,1.94164 0,0.66 0.54,0.866262 1.2,0.45836 0.66,-0.407903 1.2,-1.281641 1.2,-1.941641 z m 87.325,-21.23336 c 0.26533,-0.796 -0.6285,-1.425 -2.025,-1.425 -2.49279,0 -3.23992,1.260081 -1.675,2.825 1.11176,1.111767 3.11546,0.353611 3.7,-1.4 z M 678,127.8 V 0 H 783 888 V 127.8 255.60001 H 783 678 Z m 185.27405,115.50001 c -0.60699,-7.68338 -1.35215,-10.52736 -3.32808,-12.70194 l -2.54597,-2.80194 2.7,-2.19041 c 3.11684,-2.52858 3.7335,-9.65412 1.02967,-11.89808 -2.84825,-2.36385 -3.1541,-6.07203 -0.63081,-7.64786 1.85088,-1.15588 2.30114,-2.83932 2.30114,-8.60335 0,-6.35915 -0.37168,-7.47224 -3.3,-9.88298 -2.20556,-1.81572 -2.85228,-3.0246 -1.95001,-3.64507 0.95561,-0.65716 0.1916,-4.43397 -2.61527,-12.92837 -3.21198,-9.7204 -5.12567,-13.36776 -10.07377,-19.2 C 839.18204,145.10638 826.8,122.9246 826.8,119.44474 c 0,-0.84593 -2.02489,-1.87035 -4.5,-2.27659 -9.54821,-1.56718 -15.9,-8.71301 -15.9,-17.88767 0,-11.157155 15.77828,-18.540338 23.0385,-10.780477 3.78023,4.040391 6.9615,10.156591 6.9615,13.383947 0,2.97186 -2.24644,8.37027 -4.73203,11.37158 -1.55284,1.87501 -0.84396,1.73943 4.20195,-0.80363 6.40732,-3.22919 10.24973,-6.6302 17.6736,-15.643311 3.0974,-3.760455 5.77098,-5.747128 8.4,-6.241813 L 865.8,89.841128 865.94532,79.487667 c 0.128,-9.119149 -0.15052,-10.593018 -2.3362,-12.362882 l -2.48154,-2.00942 2.63621,-1.646338 c 4.8474,-3.027248 3.22063,-5.241683 -6.06379,-8.254327 -4.785,-1.552655 -14.14013,-4.827646 -20.78917,-7.277757 -6.64905,-2.450111 -14.47905,-4.800491 -17.4,-5.223065 L 814.2,41.94556 l 7.2,3.770797 c 8.26062,4.326268 8.43386,4.449778 7.52143,5.362216 -0.37321,0.373215 -4.04039,-1.018467 -8.14927,-3.092626 -9.44474,-4.767691 -12.24294,-4.232713 -15.41929,2.947966 -5.62355,12.712943 -23.21122,13.386712 -28.35075,1.086094 -2.78444,-6.664133 0.062,-14.944604 6.27502,-18.25398 3.455,-1.840333 21.99078,-0.543499 23.77385,1.66331 1.01587,1.257298 2.36904,1.263895 7.2,0.0351 8.67038,-2.205396 17.34901,-3.180808 17.34901,-1.949901 0,0.587742 -3.77808,1.705878 -8.39574,2.484748 -4.61766,0.778868 -8.66818,1.856916 -9.00114,2.395661 -1.26797,2.051621 11.19197,2.463031 22.55059,0.744588 C 848.9036,37.301381 867.6,31.762706 867.6,30.001542 c 0,-0.550751 -1.485,-2.128783 -3.3,-3.506739 l -3.3,-2.505373 3.53774,-2.929367 c 3.299,-2.731661 3.42616,-3.137885 1.88426,-6.018961 -1.27032,-2.373622 -1.32543,-3.417679 -0.23775,-4.505349 C 866.96291,9.757089 867.6,7.6080003 867.6,5.7600002 V 2.4000001 H 774 680.4 V 127.8 253.20001 h 91.82808 91.82808 z M 740.7,230.80527 c -0.84588,-0.34131 -1.5,-2.67927 -1.5,-5.36129 v -4.75602 l -2.90566,2.15603 c -1.79462,1.33163 -2.48288,2.59192 -1.8,3.29602 0.60812,0.627 1.10566,1.93613 1.10566,2.90917 0,1.31695 -0.70993,1.10224 -2.77734,-0.84 -3.44402,-3.23549 -4.42266,-3.28177 -4.42266,-0.20917 0,1.32 -0.50902,2.4 -1.13114,2.4 -0.62214,0 -0.93798,-2.835 -0.70187,-6.3 l 0.42927,-6.3 5.08294,-0.37785 c 3.25061,-0.24163 5.44362,0.19095 6.0835,1.2 0.76021,1.19884 1.00496,1.21754 1.01893,0.0779 0.0124,-1.0085 1.88606,-1.4503 5.71837,-1.34835 l 5.7,0.15164 -4.5,1.25999 c -4.73189,1.3249 -6.20477,4.43669 -2.1,4.43669 1.32,0 2.4,0.54 2.4,1.2 0,0.66 -1.125,1.2 -2.5,1.2 -3.14284,0 -2.38074,2.95239 0.80598,3.12233 4.16116,0.22189 4.72397,0.63349 2.29402,1.67767 -2.73589,1.17565 -4.16323,1.26746 -6.3,0.40526 z m -5.62936,-9.3671 c 2.23115,-1.68756 2.19023,-1.76344 -0.97064,-1.8 -1.815,-0.021 -3.705,-0.0667 -4.2,-0.10152 -0.495,-0.0349 -1.0746,0.77514 -1.28798,1.8 -0.49968,2.39976 3.34028,2.46014 6.45862,0.10152 z m 26.78571,8.18874 c -1.44811,-1.74486 -1.3459,-1.88053 0.88364,-1.17291 1.55157,0.49245 3.05524,0.15669 3.90984,-0.87304 1.12348,-1.35371 0.6975,-1.81149 -2.23058,-2.3971 -2.82823,-0.56564 -3.61925,-1.35802 -3.61925,-3.62546 0,-3.12432 1.96453,-4.35839 6.93815,-4.35839 3.45355,0 2.40204,1.88822 -1.43871,2.58353 -3.5757,0.64731 -3.79474,3.41647 -0.27026,3.41647 4.07929,0 4.87368,1.71698 2.48268,5.3661 -2.30413,3.51656 -4.34717,3.8422 -6.65551,1.0608 z M 702,224.40001 c 0,-5.59858 1.26359,-7.60957 3.00796,-4.78714 0.47448,0.76773 1.69952,0.54751 3.33782,-0.6 3.9576,-2.772 4.45422,-2.29727 4.45422,4.25796 0,4.11205 -0.42619,5.80741 -1.32089,5.25447 -0.76305,-0.4716 -1.02097,-2.31598 -0.61071,-4.36726 0.51621,-2.58108 0.30343,-3.36089 -0.77912,-2.85523 -0.8191,0.38261 -2.43428,1.02899 -3.58928,1.43639 -1.3432,0.47378 -2.1,1.98766 -2.1,4.20076 0,1.90302 -0.54,3.46005 -1.2,3.46005 -0.66,0 -1.2,-2.7 -1.2,-6 z m 12.39458,3.48764 c 0.42496,-1.5882 0.78003,-4.60626 0.78904,-6.70677 0.0208,-4.85064 3.54368,-6.2908 8.09444,-3.30903 l 3.16056,2.07088 -2.75224,2.22864 c -1.51374,1.22575 -3.77244,2.22864 -5.01932,2.22864 -1.44409,0 -2.26706,0.84553 -2.26706,2.32917 0,1.28105 -0.62507,2.7155 -1.38902,3.18765 -0.9739,0.6019 -1.15811,-0.005 -0.6164,-2.02918 z m 8.64058,-7.14453 c 0.77232,-1.24965 -3.831,-2.73454 -5.42442,-1.74975 -0.6659,0.41155 -1.21074,1.45152 -1.21074,2.31106 0,1.67695 5.54156,1.20816 6.63516,-0.56131 z m 28.35073,7.55689 c -1.60953,-3.07683 -0.24222,-9.78541 2.26827,-11.12898 1.19458,-0.63933 3.15609,-0.78421 4.35891,-0.32196 1.91854,0.7373 1.82967,0.92492 -0.7241,1.52879 -3.73638,0.88351 -4.49983,3.13018 -1.3441,3.95544 3.12177,0.81636 4.35216,3.98092 2.44245,6.28198 -2.00619,2.41732 -5.65798,2.25287 -7.00143,-0.31527 z m 5.92503,-2.1 c -0.008,-0.66 -1.11724,-1.37256 -2.46339,-1.58346 -2.41341,-0.37812 -3.24687,0.98411 -1.60604,2.62494 1.16682,1.16683 4.08872,0.41904 4.06943,-1.04148 z M 771.6,223.12918 c 0,-4.54164 0.45043,-6.99243 1.2,-6.52917 0.66,0.4079 1.2,3.67977 1.2,7.27082 0,3.59105 -0.54,6.52918 -1.2,6.52918 -0.66797,0 -1.2,-3.22361 -1.2,-7.27083 z m 6.34938,1.28974 c -1.39601,-3.30428 -2.0837,-6.28868 -1.52821,-6.63199 0.5555,-0.34332 1.69646,1.27417 2.53548,3.59443 1.73115,4.78742 3.4344,5.53463 3.46172,1.51865 0.01,-1.485 0.59313,-3.51 1.29559,-4.5 0.95292,-1.34297 1.12397,-0.46317 0.67367,3.46509 -0.33195,2.89581 -1.34526,6.00682 -2.25179,6.91335 -1.39766,1.39766 -2.03413,0.73488 -4.18646,-4.35953 z m 8.30958,-0.91891 0.34104,-6.9 5.81434,-0.37042 c 3.86574,-0.24627 5.55121,0.0553 5.02918,0.9 -0.43184,0.69873 -2.6433,1.27042 -4.91434,1.27042 -4.68861,0 -5.46146,1.93453 -1.42918,3.57739 l 2.7,1.10006 -2.7,0.80123 c -1.485,0.44068 -2.7,1.61935 -2.7,2.61928 0,1.42836 1.02886,1.68005 4.8,1.17423 2.64,-0.3541 4.8,-0.21297 4.8,0.31361 0,1.42218 -3.26227,2.4142 -7.93919,2.4142 h -4.1429 z m -89.68296,0 c 0.89096,-5.98522 1.37696,-7.14705 2.51402,-6.00999 1.11155,1.11155 -0.84571,11.70999 -2.16253,11.70999 -0.75066,0 -0.88227,-2.13433 -0.35149,-5.7 z m 103.28735,3.40249 c -0.38638,-0.62516 -0.19101,-1.45278 0.43416,-1.83914 0.62516,-0.38638 1.45278,-0.19101 1.83914,0.43416 0.38638,0.62516 0.19101,1.45278 -0.43416,1.83914 -0.62516,0.38638 -1.45278,0.191 -1.83914,-0.43416 z M 695.46804,209.733 c -2.21886,-3.16787 -2.45348,-9.46755 -0.42804,-11.49299 1.73759,-1.73759 9.36,-1.93303 9.36,-0.24 0,0.66 -1.601,1.2 -3.55778,1.2 -4.507,0 -6.55266,3.30119 -4.8389,7.80875 0.75677,1.99042 1.94516,3.02208 3.20074,2.77856 2.66268,-0.51641 3.53153,-3.38731 1.02512,-3.38731 -1.12138,0 -1.62106,-0.56591 -1.15934,-1.31301 0.44632,-0.72214 2.06026,-1.07428 3.58654,-0.78252 2.10698,0.40278 2.9373,-0.11592 3.44898,-2.15463 0.90901,-3.62179 4.0249,-4.6026 7.46372,-2.3494 3.28622,2.15321 3.59701,4.97179 0.96288,8.73255 -2.13307,3.04539 -5.57141,3.47031 -7.66532,0.9473 -1.22307,-1.47371 -1.75905,-1.38788 -3.74693,0.6 -3.03732,3.03732 -5.35465,2.93214 -7.65167,-0.3473 z M 715.2,204.014 c 0,-1.75957 -3.58075,-3.87815 -5.38472,-3.1859 -2.20266,0.84524 -2.45482,7.5248 -0.31528,8.35149 1.4495,0.56008 5.7,-3.29192 5.7,-5.16559 z m 4.96524,2.08601 c -0.12156,-4.19323 -0.64106,-5.7 -1.96524,-5.7 -0.99,0 -1.8,-0.54 -1.8,-1.2 0,-0.66 2.46187,-1.2 5.47082,-1.2 3.34164,0 5.18218,0.46703 4.72918,1.2 -0.4079,0.66 -1.42927,1.2 -2.2697,1.2 -0.8495,0 -2.07688,2.53121 -2.76394,5.7 l -1.23588,5.7 z m 89.0878,3.34974 c -0.53655,-1.39822 -1.14468,-1.56959 -2.26637,-0.63868 -1.5691,1.30224 -22.35575,0.76771 -24.62242,-0.63315 -1.59482,-0.98566 -1.47606,-9.84357 0.14541,-10.84569 0.8835,-0.54602 1.17636,0.69997 0.9,3.82919 -0.37859,4.28682 -0.15941,4.66739 2.89034,5.01829 3.11898,0.35889 3.3,0.11328 3.3,-4.47714 0,-4.18934 0.41534,-4.96109 3.02218,-5.61535 1.66219,-0.41719 4.4596,-0.48373 6.21646,-0.14789 1.75688,0.33585 4.15234,0.0124 5.32326,-0.71892 2.75703,-1.72179 4.46165,-0.0587 1.93916,1.89199 -1.73709,1.34326 -1.64126,1.89185 0.9876,5.65374 1.60124,2.29138 2.94556,3.64138 2.98741,3 0.0419,-0.64137 0.56443,0.0488 1.16132,1.53387 1.26864,3.1562 3.00048,3.49575 4.03812,0.79171 1.0287,-2.68076 -0.14991,-4.09171 -3.41795,-4.09171 -3.29328,0 -4.74309,-2.85055 -3.05454,-6.00567 1.50617,-2.81428 5.82176,-4.24956 7.55777,-2.51354 0.95895,0.95894 0.66378,1.31921 -1.08079,1.31921 -2.4265,0 -5.28,2.07528 -5.28,3.84 0,0.528 1.01388,0.96 2.25307,0.96 5.7919,0 6.75906,8.72255 1.0401,9.38036 -2.17559,0.25025 -3.55767,-0.27337 -4.04013,-1.53062 z M 806.4,206.28334 c 0,-2.76661 -1.824,-4.68333 -4.45678,-4.68333 -2.17365,0 -2.80974,-0.49581 -2.30926,-1.8 0.53216,-1.38679 -0.26477,-1.8 -3.47162,-1.8 -3.31236,0 -4.16234,0.47306 -4.16234,2.31654 0,1.44497 1.01585,2.51636 2.7,2.84766 l 2.7,0.53112 -2.7,0.89229 c -4.9553,1.63763 -2.78035,2.98186 4.5,2.78121 3.96,-0.1092 7.2,-0.59761 7.2,-1.08549 z m -72.65599,-0.60986 c 0.48191,-2.57041 1.73363,-6.12557 2.78162,-7.90034 2.43465,-4.12311 5.73109,-2.72277 6.86641,2.91688 0.43293,2.1505 1.05321,4.85499 1.37841,6.00999 0.32521,1.155 0.0779,2.1 -0.54963,2.1 -0.6275,0 -1.40709,-1.01789 -1.73242,-2.26197 -0.44696,-1.70917 -1.36097,-2.11488 -3.73996,-1.66011 -1.73165,0.33103 -3.14844,1.31705 -3.14844,2.19115 0,0.8741 -0.61474,1.96922 -1.36609,2.43358 -0.98523,0.6089 -1.12181,-0.45867 -0.4899,-3.82918 z m 7.83762,-3.77347 c -0.01,-0.495 -0.55011,-1.71 -1.2,-2.7 -1.05034,-1.6 -1.31292,-1.6 -2.36326,0 -1.7711,2.69798 -1.47504,3.6 1.18163,3.6 1.32,0 2.39173,-0.405 2.38163,-0.9 z m 9.21776,7.29939 c -1.28024,-1.28025 -0.92101,-12.39939 0.40061,-12.39939 0.66,0 1.2,2.43 1.2,5.4 0,4.83479 0.28889,5.4 2.76,5.4 2.34923,0 2.76,-0.61913 2.76,-4.16001 0,-2.28799 0.2777,-4.43769 0.61711,-4.7771 1.24974,-1.24975 20.26289,-2.01352 20.26289,-0.81397 0,0.65541 -1.485,1.36254 -3.3,1.57137 -2.80885,0.3232 -3.35738,1.0048 -3.68556,4.57971 -0.60364,6.5757 -2.61444,7.3205 -2.61444,0.96839 0,-3.79223 -0.56153,-5.7271 -1.8,-6.20235 -1.99873,-0.76698 -2.49086,1.06534 -0.6,2.23396 1.66562,1.02942 1.49837,3.33325 -0.43386,5.97571 -1.16947,1.59936 -3.50027,2.34652 -8.2006,2.62876 -3.61171,0.21687 -6.92647,0.0346 -7.36615,-0.40508 z M 765,204.10315 c 0,-2.04797 -0.7693,-2.98139 -2.7,-3.27604 -2.14453,-0.32727 -2.7,0.16245 -2.7,2.38043 0,3.36868 1.05581,4.59622 3.54149,4.11751 1.0589,-0.20391 1.85851,-1.59012 1.85851,-3.2219 z m 21.58198,-13.3323 c -0.41782,-0.67603 -0.60274,-3.78103 -0.41093,-6.9 0.41071,-6.67875 -1.64434,-7.43036 -2.69207,-0.98459 -0.39655,2.43967 -1.28419,4.99896 -1.97254,5.6873 -1.54591,1.54592 -5.34194,0.92391 -5.97553,-0.97912 -0.29671,-0.89122 0.42755,-1.17141 1.97917,-0.76564 3.37799,0.88336 6.02886,-5.42818 3.16072,-7.52542 -2.98397,-2.18192 -2.2177,-2.90337 3.0838,-2.90337 h 4.95459 l -0.78411,5.91093 c -0.53055,3.99946 -0.32764,6.19306 0.62745,6.78334 2.07275,1.28102 4.64747,-2.92634 4.64747,-7.59445 0,-2.63532 0.45958,-3.75743 1.32089,-3.22511 1.62948,1.00708 0.52621,7.15895 -1.96601,10.96256 -1.9001,2.89994 -4.68631,3.6153 -5.9729,1.53357 z m -92.06511,-0.72657 c -1.56257,-2.40681 -0.74099,-13.78709 1.04482,-14.47237 2.91416,-1.11827 7.63831,0.75244 7.63831,3.02468 0,2.26496 -4.13891,7.40342 -5.96328,7.40342 -0.5884,0 -1.24302,1.215 -1.45474,2.7 -0.236,1.65534 -0.72549,2.17545 -1.26511,1.34427 z m 5.04091,-8.76538 c 1.72661,-3.22621 1.58415,-3.67889 -1.15778,-3.67889 -1.76,0 -2.4,0.8 -2.4,3 0,3.57291 1.82279,3.92073 3.55778,0.67889 z m 4.96184,3.22111 c -0.0673,-3.87975 0.40564,-6.9 1.08038,-6.9 1.39546,0 1.39546,6.44269 0,10.8 -0.73324,2.28954 -0.9891,1.36595 -1.08038,-3.9 z M 708.8,190 c -1.4794,-1.47939 -0.81674,-8.61182 0.96572,-10.39428 0.97113,-0.97115 3.61566,-1.76571 5.8767,-1.76571 2.26104,0 5.24646,-0.36039 6.63428,-0.80087 1.38781,-0.44047 3.58862,-0.46275 4.89068,-0.0494 2.0463,0.64947 2.2683,1.47419 1.63689,6.08087 -0.6018,4.39062 -0.39209,5.32949 1.1904,5.32949 2.38829,0 4.38113,-3.56691 4.4814,-8.02112 0.074,-3.28772 0.10608,-3.30392 1.1903,-0.60055 0.7833,1.95313 0.59568,3.78113 -0.63168,6.15459 -3.55693,6.87832 -9.46562,5.39646 -8.80511,-2.20829 0.28533,-3.28493 -0.11196,-4.36065 -1.72958,-4.68262 -1.72067,-0.34249 -2.1,0.45216 -2.1,4.39918 0,2.64944 -0.5866,5.1797 -1.30356,5.6228 -0.87536,0.54101 -1.171,-0.71679 -0.9,-3.82917 0.3982,-4.57326 0.34376,-4.63977 -4.09855,-5.00739 -3.88638,-0.32161 -4.66134,0.0462 -5.66634,2.68959 -1.53379,4.03417 -0.32278,7.03905 2.5356,6.29157 1.22989,-0.32162 1.93355,-0.0952 1.56368,0.50332 -0.7823,1.26581 -4.56306,1.45586 -5.73083,0.28808 z m 34.81772,-2.03613 c -2.4638,-3.76023 -4.41772,-4.09807 -4.41772,-0.76386 0,1.32 -0.52967,2.4 -1.17704,2.4 -1.29762,0 -0.28977,-10.75864 1.15842,-12.36582 1.16461,-1.29249 19.33675,0.40387 18.51799,1.72863 -0.35255,0.57046 -2.22915,1.03719 -4.17019,1.03719 -4.17848,0 -4.6502,2.02674 -0.82918,3.56261 l 2.7,1.08526 -2.7,0.0761 c -1.56619,0.0442 -2.7,0.83194 -2.7,1.87607 0,1.86359 1.09888,2.21965 5.7,1.84696 1.485,-0.1203 2.7,0.35993 2.7,1.06716 0,0.72401 -2.35957,1.28588 -5.4,1.28588 h -5.4 v -5.58599 c 0,-5.51748 -0.0295,-5.55924 -2.40972,-3.40521 -2.22589,2.0144 -2.26226,2.34368 -0.47684,4.31654 1.06306,1.17468 1.71786,2.78077 1.45508,3.56909 -0.27198,0.81596 -1.37064,0.0706 -2.5508,-1.73057 z M 744,180.60001 c 1.24808,-1.50384 1.07482,-1.8 -1.05307,-1.8 -1.46394,0 -2.54693,0.76538 -2.54693,1.8 0,0.99 0.47388,1.8 1.05307,1.8 0.57918,0 1.7253,-0.81 2.54693,-1.8 z m 15.69769,7.31771 c -1.15148,-1.38746 -0.72643,-1.65035 2.4252,-1.5 2.12269,0.10128 4.05603,-0.48449 4.34925,-1.31771 0.33194,-0.94326 -0.59645,-1.5 -2.50132,-1.5 -3.59728,0 -4.80487,-1.54201 -3.76741,-4.81074 0.53009,-1.67015 1.81751,-2.38926 4.27746,-2.38926 1.93551,0 3.51913,0.54 3.51913,1.2 0,0.66 -1.04813,1.2 -2.32918,1.2 -1.28104,0 -2.66292,0.54 -3.07082,1.2 -0.4079,0.66 0.34339,1.2 1.66955,1.2 3.12891,0 5.09879,3.44324 3.58647,6.26901 -1.3616,2.54418 -6.19845,2.8102 -8.15833,0.4487 z M 797.6,188.8 c -0.44,-0.43999 -0.78283,-1.65499 -0.76184,-2.7 0.033,-1.64239 0.25319,-1.61679 1.62413,0.18884 1.50341,1.98009 1.68881,1.97518 3.56184,-0.0944 2.71062,-2.9952 2.48699,-3.79434 -1.06179,-3.79434 -3.90182,0 -5.31691,-3.38796 -2.32796,-5.57354 1.22338,-0.89455 2.93112,-1.62647 3.79498,-1.62647 2.55775,0 1.79011,2.04755 -1.12936,3.01239 l -2.7,0.8923 2.77338,0.54073 c 3.49271,0.68099 4.52573,3.2657 2.8101,7.03111 -1.25359,2.75132 -4.80888,3.89807 -6.58348,2.12347 z m 11.2,-4.39999 c 0,-4.17777 -0.45714,-5.6 -1.8,-5.6 -0.99,0 -1.8,-0.49254 -1.8,-1.09452 0,-1.72706 9.62432,-2.96116 11.15508,-1.4304 0.96656,0.96656 0.44857,1.32492 -1.91508,1.32492 -2.68478,0 -3.27517,0.5655 -3.44526,3.3 -0.11292,1.815 -0.26411,4.21622 -0.33605,5.33604 -0.30816,4.79748 -1.85869,3.26583 -1.85869,-1.83604 z m -113.56932,-21.2 c 0.1616,-7.44476 0.31063,-7.81643 3.27204,-8.16068 1.70648,-0.19836 3.77754,0.45245 4.60232,1.44627 1.16428,1.40286 1.98149,1.506 3.65446,0.46122 1.7224,-1.07566 2.8227,-0.82037 5.48286,1.27212 2.99297,2.35427 3.53034,2.43475 5.33732,0.79945 2.29061,-2.07296 4.82032,-2.39749 4.82032,-0.61838 0,0.66 -0.75223,1.2 -1.67161,1.2 -0.91939,0 -1.99939,0.85416 -2.4,1.89814 -1.21588,3.16853 -0.81769,6.50412 0.77161,6.4637 3.07942,-0.0784 5.7,-3.29392 5.7,-6.99413 0,-2.07225 0.54,-3.76771 1.2,-3.76771 0.66,0 1.2,0.60612 1.2,1.34692 0,0.92112 0.57822,0.86706 1.829,-0.171 2.39808,-1.99022 3.75747,-0.56948 1.75906,1.83846 -1.31147,1.58022 -1.02412,2.42542 1.84152,5.41649 4.31693,4.50591 2.87809,6.27936 -1.60776,1.98165 C 726.99378,163.75341 726,163.60664 726,166.87083 c 0,1.35895 -0.52884,2.14398 -1.1752,1.7445 -0.64636,-0.39947 -2.31128,-0.11832 -3.69982,0.62483 -2.00166,1.07125 -2.96546,0.95219 -4.65274,-0.57478 -1.90325,-1.72242 -2.28863,-1.73252 -3.64711,-0.0956 -1.66193,2.0025 -6.68214,2.47967 -7.75888,0.73747 -0.37147,-0.60104 -0.79111,-2.49104 -0.93255,-4.2 -0.14144,-1.70896 -0.85938,-3.1072 -1.59543,-3.1072 -2.53711,0 -2.93811,1.61119 -0.94825,3.80997 2.59582,2.86834 1.09074,4.37808 -1.77715,1.78267 -2.90113,-2.62549 -3.53836,-2.51814 -4.19873,0.70736 -0.30402,1.485 -0.47658,-0.81 -0.38346,-5.1 z m 17.80249,2.96744 c 1.50346,-3.29972 0.73947,-4.62396 -3.38442,-5.86622 -1.92291,-0.57926 -2.70798,-0.16916 -3.18765,1.66513 -1.72258,6.58716 3.8592,10.15523 6.57207,4.20109 z M 702,159.00001 c 0,-1 -1.06667,-1.8 -2.4,-1.8 -1.33333,0 -2.4,0.8 -2.4,1.8 0,0.99999 1.06667,1.8 2.4,1.8 1.33333,0 2.4,-0.80001 2.4,-1.8 z m 37.19072,8.98266 c -2.58318,-4.82672 0.32952,-11.98266 4.87732,-11.98266 3.13999,0 2.9496,1.55991 -0.36804,3.01544 -2.86855,1.2585 -4.08884,6.00739 -2.26346,8.80846 1.74354,2.67548 6.15972,-0.44357 6.18183,-4.36612 0.0193,-3.42353 1.80479,-7.23462 2.88385,-6.15556 0.348,0.348 0.068,2.678 -0.62222,5.17778 -1.51003,5.46886 -1.13005,5.98525 3.63419,4.93885 3.43646,-0.75478 3.68581,-1.16841 3.68581,-6.11421 0,-5.82895 1.94557,-7.25212 2.7405,-2.00464 l 0.49991,3.3 0.17979,-3.18766 c 0.1445,-2.56183 0.65098,-3.06444 2.5798,-2.56004 1.32,0.34519 2.4,1.45832 2.4,2.47364 0,1.56439 0.35933,1.52084 2.3553,-0.28549 2.8796,-2.60601 5.67732,-1.73616 6.3882,1.98617 0.39234,2.0543 0.57203,1.74248 0.69308,-1.20266 0.15353,-3.73558 0.39926,-3.95329 4.06342,-3.6 3.42984,0.3307 3.87276,0.77386 3.67409,3.67604 -0.12426,1.815 0.3183,3.3 0.98346,3.3 0.66516,0 1.03681,1.215 0.82591,2.7 -0.33893,2.38648 -1.115,2.71652 -6.68346,2.84233 l -6.3,0.14232 v -4.64232 c 0,-5.36363 -0.56022,-5.65878 -3.68666,-1.94233 l -2.27138,2.7 -0.76094,-2.7 c -1.18781,-4.21466 -2.87701,-3.17308 -2.91918,1.8 -0.0358,4.21704 -0.14896,4.35352 -1.8,2.17064 -1.7218,-2.2764 -1.76184,-2.26958 -1.76184,0.3 0,1.88592 -0.76342,2.66831 -2.7,2.76714 -1.485,0.0757 -5.53918,0.30247 -9.00928,0.50376 -5.14852,0.29867 -6.52834,-0.0433 -7.5,-1.85888 z m 41.85555,-3.75834 c -2.38387,-1.84818 -2.55949,-2.39244 -1.08102,-3.35025 2.17824,-1.41113 0.82747,-3.03505 -1.71349,-2.05998 -2.6562,1.01928 -2.45656,7.67557 0.24824,8.27645 4.23743,0.94134 5.55068,-0.53695 2.54627,-2.86622 z m 21.74058,2.27568 -2.37787,-3.9 -0.005,3.3 c -0.002,1.815 -0.30039,3.3 -0.66206,3.3 -0.36165,0 -1.96459,-1.485 -3.56206,-3.3 l -2.90453,-3.3 -0.114,3.6 c -0.10704,3.3795 -0.18079,3.43369 -1.20487,0.88478 -1.15772,-2.8823 -0.27401,-9.88478 1.24776,-9.88478 0.49742,0 1.57544,1.62 2.39558,3.6 1.88659,4.55462 4.12468,4.7234 3.2287,0.24348 -0.36922,-1.84608 -0.17499,-4.14108 0.43162,-5.1 1.20322,-1.90202 1.51328,-0.96134 1.2052,3.65652 -0.18862,2.8272 -0.0565,2.7711 2.29452,-0.974 2.09107,-3.33104 3.10626,-3.91347 6.27491,-3.6 2.07912,0.2057 3.97821,0.97821 4.22019,1.71668 0.27779,0.84771 -0.68604,1.12743 -2.61447,0.75879 C 806.62427,156.7337 804,159.0586 804,163.3846 c 0,4.36308 3.25459,5.95237 5.6055,2.7373 1.4441,-1.97493 1.3932,-2.3611 -0.39388,-2.98798 -1.30711,-0.45851 -1.57591,-1.01435 -0.74026,-1.5308 1.76541,-1.09109 5.12864,0.2966 5.12864,2.11609 0,1.83944 -5.06904,6.6808 -6.99498,6.6808 -0.79217,0 -2.51034,-1.755 -3.81817,-3.9 z m -16.28221,-3.96773 C 787.10975,154.85257 788.4,154.35407 788.4,161.8 c 0,3.41001 -0.52339,6.20001 -1.16309,6.20001 -0.64365,0 -0.97069,-2.44192 -0.73227,-5.46773 z m 33.46394,-13.56808 c -3.92813,-4.47657 -4.82749,-4.64957 -5.53278,-1.06419 l -0.53112,2.7 -0.878,-2.64533 c -0.82313,-2.48003 -1.05431,-2.52981 -3.69957,-0.79656 -1.55186,1.01682 -3.46217,1.45285 -4.24512,0.96895 -2.02107,-1.24909 -11.88199,-1.51572 -11.88199,-0.32128 0,1.38818 -5.70062,1.24943 -6.57166,-0.15993 -0.45664,-0.73887 -1.80559,-0.73887 -3.74894,0 -4.4142,1.67827 -7.6794,1.41461 -7.6794,-0.62013 0,-1.46395 -0.53245,-1.53166 -3.04433,-0.38719 -2.43015,1.10727 -3.37254,1.04155 -4.67121,-0.32571 -3.2014,-3.3705 -3.30808,-6.71902 -0.32456,-10.18756 2.64952,-3.08026 5.6401,-3.28367 5.6401,-0.38363 0,0.66 -0.50305,0.88911 -1.1179,0.50911 -1.70929,-1.0564 -4.69923,3.98933 -3.9842,6.72363 0.46512,1.7786 1.30374,2.23897 3.16735,1.73875 1.39411,-0.3742 2.93975,-0.68773 3.43475,-0.69674 0.495,-0.01 0.9,-1.86348 0.9,-4.12103 0,-4.56066 0.95665,-4.97503 12.46178,-5.39782 l 5.86179,-0.2154 -0.73179,3.65893 c -0.801,4.00503 0.94265,5.13365 1.95434,1.265 0.8743,-3.34338 4.23396,-4.36554 6.07467,-1.84822 1.37117,1.87519 1.64677,1.88862 3.08928,0.15052 2.01495,-2.42787 3.54779,-2.40897 6.29544,0.0776 2.04199,1.84797 2.19449,1.84797 2.19449,0 0,-1.0923 0.54,-1.98599 1.2,-1.98599 0.66,0 1.2,0.82244 1.2,1.82766 0,1.60008 0.37356,1.58289 3,-0.13801 3.59735,-2.35707 3.99758,-0.56442 0.56712,2.5401 -2.42594,2.19546 -2.42018,2.2147 2.02204,6.76395 2.45019,2.50924 4.10109,4.91604 3.66867,5.34846 -0.43242,0.43243 -2.27258,-0.90765 -4.08925,-2.97797 z M 790.2,143.25908 c -2.14938,-1.59354 -2.44366,-1.5688 -2.81807,0.237 -0.51576,2.48745 2.34381,4.46599 4.00804,2.77317 0.81725,-0.83128 0.43098,-1.8084 -1.18997,-3.01017 z m -8.1,2.38458 c 2.12542,-0.56958 2.7,-1.58759 2.7,-4.78361 0,-3.50454 -0.40078,-4.06004 -2.92918,-4.06004 -3.9255,0 -4.976,2.01445 -1.60795,3.08343 l 2.69771,0.85621 -2.68028,0.99152 c -1.47417,0.54532 -2.6803,1.8189 -2.6803,2.83017 0,2.02431 0.51911,2.14915 4.5,1.08232 z m 18.28732,-1.02838 c 1.82034,-2.19336 0.75693,-5.41527 -1.78732,-5.41527 -2.20188,0 -3.54977,2.83648 -2.56604,5.4 0.87754,2.28687 2.46348,2.29244 4.35336,0.0152 z m 9.48645,0.13683 c 1.80783,-2.1783 0.42615,-5.5521 -2.27377,-5.5521 -2.13046,0 -3.6,2.24438 -3.6,5.49814 0,2.17658 4.08104,2.21405 5.87377,0.054 z M 790.8,137.30001 c 0,-1.04501 -0.64124,-1.68625 -1.425,-1.425 -2.22506,0.74168 -2.59411,3.325 -0.475,3.325 1.045,0 1.9,-0.855 1.9,-1.9 z m -93.42982,10 c 0.13494,-2.145 -0.65814,-5.62818 -1.76241,-7.74041 -2.27338,-4.34845 -2.43065,-5.15959 -1.00039,-5.15959 0.55406,0 1.6768,1.46922 2.49499,3.26494 l 1.48761,3.26494 2.27832,-2.96494 c 1.61052,-2.09587 2.28616,-2.41663 2.30501,-1.0943 0.0146,1.02886 -0.76614,2.91886 -1.73515,4.2 -0.969,1.28114 -1.779,4.08436 -1.8,6.22936 -0.021,2.145 -0.59508,3.9 -1.27576,3.9 -0.68066,0 -1.12717,-1.755 -0.99222,-3.9 z m 19.21366,2.40384 c -0.76111,-0.76112 -1.40095,-2.49084 -1.42186,-3.84384 -0.0342,-2.21674 -0.28149,-2.13366 -2.50009,0.84 -2.73575,3.66682 -5.9828,4.24614 -8.28068,1.47735 -2.03388,-2.45067 -0.1435,-11.26451 2.79949,-13.05249 1.80977,-1.0995 2.67626,-0.7125 5.09405,2.27514 2.28734,2.82646 2.91461,3.13356 2.91929,1.42917 0.004,-1.19395 0.52827,-1.84801 1.16666,-1.45346 0.63838,0.39453 0.85158,2.26287 0.47378,4.15184 -0.37779,1.88898 -0.20064,4.30341 0.39368,5.36538 0.94443,1.68762 1.37388,1.7164 3.40875,0.22846 1.72432,-1.26085 2.29324,-3.03551 2.19343,-6.84209 -0.11532,-4.39843 0.0823,-4.84285 1.37018,-3.08153 1.39749,1.91119 1.55028,1.88478 2.13987,-0.36981 0.77112,-2.94881 5.83381,-3.30988 8.10125,-0.57779 1.27274,1.53357 1.10026,2.43889 -1.008,5.29046 -2.20387,2.98089 -2.30917,3.63478 -0.78858,4.89676 0.96522,0.80106 1.73698,2.33535 1.71502,3.40953 -0.0317,1.55045 -0.50427,1.39647 -2.29235,-0.74692 -2.5879,-3.10212 -4.86773,-3.52365 -4.86773,-0.9 0,0.99 -0.50605,1.8 -1.12456,1.8 -0.6185,0 -0.86049,-2.025 -0.53775,-4.5 l 0.58679,-4.5 -1.76458,3.80551 c -2.14237,4.62026 -5.76938,6.905 -7.77606,4.89833 z m -4.96157,-5.14546 c 1.45942,-2.72695 1.36163,-3.30782 -0.94529,-5.61473 l -2.57311,-2.57311 -1.25193,3.29285 c -0.68856,1.81106 -1.25194,4.33769 -1.25194,5.61473 0,3.40129 4.07756,2.91397 6.02227,-0.71974 z m 20.33551,-4.0795 c 1.72661,-3.2262 1.58415,-3.67888 -1.15778,-3.67888 -1.76,0 -2.4,0.8 -2.4,3 0,3.57291 1.82279,3.92073 3.55778,0.67888 z m 12.97254,2.02112 c 0.31791,-3.465 0.7804,-6.52676 1.02776,-6.80391 0.24735,-0.27715 3.6972,-0.59445 7.66633,-0.70514 l 7.21661,-0.20124 1.63147,5.50514 c 0.8973,3.02783 1.30574,6.04515 0.90764,6.70515 -0.3981,0.66 -0.91109,0.255 -1.13996,-0.9 -0.53831,-2.71644 -7.44017,-2.99475 -7.44017,-0.3 0,0.99 -0.59854,1.8 -1.33009,1.8 -1.25308,0 -0.92639,-3.05056 0.81176,-7.58012 0.75175,-1.95906 -3.35826,-3.93223 -5.47093,-2.62652 -1.95002,1.20518 -1.43419,4.21706 0.58926,3.44059 2.64246,-1.01401 2.19437,1.14245 -0.6,2.88756 -1.32,0.82435 -2.4,2.30424 -2.4,3.28865 0,0.98441 -0.46073,1.78984 -1.02385,1.78984 -0.56311,0 -0.76374,-2.835 -0.44583,-6.3 z m 14.987,-1.61733 c 1.08172,-1.08171 -0.40776,-4.16841 -1.64306,-3.40496 -0.59084,0.36516 -1.07426,1.44206 -1.07426,2.39311 0,1.76711 1.42969,2.29949 2.71732,1.01185 z m 13.52403,-19.99576 c -0.49949,-1.1622 -0.23702,-5.67005 0.58327,-10.01744 1.24133,-6.57876 2.49647,-9.14244 7.48424,-15.286914 6.7832,-8.356301 10.01052,-14.754268 11.20245,-22.208227 0.45063,-2.818041 1.26577,-4.677252 1.81145,-4.131581 1.22009,1.220092 -1.40437,12.816777 -4.04104,17.856085 -1.06442,2.034361 -3.88147,6.028239 -6.2601,8.875284 -6.08194,7.279603 -6.9285,9.136873 -8.4899,18.625873 -0.94388,5.73621 -1.6702,7.7299 -2.29037,6.28692 z M 885.6,127.8 V 2.4000001 h -7.72465 -7.72465 l 0.57776,11.1000009 c 0.31777,6.105 0.0367,15.69 -0.62447,21.3 -0.66122,5.610001 -1.5248,19.380001 -1.91905,30.600002 -0.39425,11.22 -0.99145,24.720001 -1.3271,30.000001 -1.10981,17.457646 -0.7369,41.906976 0.64621,42.368016 1.56063,0.52021 1.74979,8.26393 0.21573,8.83199 -1.66394,0.61615 -3.02845,34.14399 -1.4298,35.13201 1.90119,1.17499 1.62838,6.66799 -0.33115,6.66799 -2.3945,0 -2.39631,34.14306 -0.002,36.13022 2.05156,1.70263 2.12193,5.95881 0.14309,8.65437 -0.9807,1.33591 -1.36332,5.15425 -1.1052,11.02935 l 0.39481,8.98606 h 10.10519 10.1052 V 127.8 Z m -20.4,101.47083 c 0,-2.8784 -1.38558,-3.83941 -3.58013,-2.4831 -1.37741,0.85128 -1.39398,1.35659 -0.0958,2.92081 2.12836,2.56454 3.6759,2.38025 3.6759,-0.43771 z m 0,-44.47082 c 0,-0.66 -1.08,-1.2 -2.4,-1.2 -1.32,0 -2.4,0.54 -2.4,1.2 0,0.66 1.08,1.2 2.4,1.2 1.32,0 2.4,-0.54 2.4,-1.2 z m -2.4,-6.96 c 0,-2.508 -0.46438,-5.073 -1.03194,-5.7 -0.56756,-0.627 -2.00962,-6.08075 -3.20456,-12.11944 l -2.17263,-10.97944 -7.68207,-3.0479 c -4.22513,-1.67635 -7.19621,-2.4056 -6.60239,-1.62056 0.59382,0.78504 3.46781,4.42534 6.38663,8.08958 4.01426,5.03942 6.18387,9.49396 8.90696,18.28733 1.98,6.39379 4.005,11.63077 4.5,11.63774 0.495,0.007 0.9,-2.03931 0.9,-4.54731 z m 1.35754,-20.83322 c 0.33404,-8.96954 0.25444,-9.25903 -3.51364,-12.77895 -2.4823,-2.31881 -3.59395,-4.28289 -3.12127,-5.51467 0.86024,-2.24176 1.12868,-2.29126 4.0238,-0.74183 2.80891,1.50329 3.84285,-1.85544 2.83491,-9.2092 -0.55414,-4.04287 -1.40388,-5.52018 -3.84632,-6.68696 -1.72425,-0.82371 -3.30758,-2.7076 -3.51848,-4.18642 -0.45263,-3.17377 -0.36433,-3.16399 -7.90726,-0.87577 -3.23989,0.98286 -9.04489,1.78701 -12.9,1.78701 -3.8551,0 -7.00928,0.497 -7.00928,1.10444 0,0.60744 1.92582,4.89524 4.27961,9.52844 4.59716,9.04907 7.21785,11.233 18.21404,15.17848 3.4615,1.242 6.52931,3.09753 6.81736,4.12341 0.28803,1.02588 1.16087,5.10524 1.93961,9.06524 2.39878,12.19802 3.22972,12.02022 3.70692,-0.79322 z M 866.4,142.20001 c 0,-1.12 -1.13333,-1.8 -3,-1.8 -3.1382,0 -4.08126,1.7637 -1.5,2.80526 2.85791,1.15319 4.5,0.78636 4.5,-1.00526 z m -3.6,-24.56234 c 0,-1.60685 -0.57565,-2.14144 -1.8,-1.67162 -1.92515,0.73875 -2.29597,1.93798 -1,3.23395 1.51354,1.51354 2.8,0.79572 2.8,-1.56233 z m -13.22645,-3.14098 c 3.52504,-1.04682 7.63813,-1.66838 9.14022,-1.38123 4.09752,0.78328 4.88247,-0.27256 5.81023,-7.81546 0.63406,-5.15502 0.47141,-6.899996 -0.64316,-6.899996 -0.82052,0 -2.42306,-0.842722 -3.56119,-1.872714 -1.91061,-1.72908 -2.50102,-1.337915 -7.69779,5.1 -3.09565,3.83499 -8.01764,8.37338 -10.93776,10.08531 -2.9201,1.71192 -5.66361,3.46692 -6.09669,3.9 -1.50401,1.50401 7.61354,0.77655 13.98614,-1.11591 z m -19.86093,-2.80547 c 2.2859,-2.38597 3.54292,-5.16999 3.92818,-8.70001 0.50409,-4.618877 0.0958,-5.737073 -3.70326,-10.142391 -2.34838,-2.723151 -5.3143,-5.22433 -6.59092,-5.558173 -3.12665,-0.817637 -11.63968,3.119905 -13.2498,6.12845 -3.48038,6.503145 0.0818,16.198244 7.24897,19.729014 5.79605,2.85533 8.5458,2.53139 12.36683,-1.45689 z M 864,94.200004 c 0,-0.99 -0.54,-1.8 -1.2,-1.8 -0.66,0 -1.2,0.81 -1.2,1.8 0,0.99 0.54,1.8 1.2,1.8 0.66,0 1.2,-0.81 1.2,-1.8 z M 796.78675,57.006855 c 7.68067,-3.971831 9.37741,-11.284438 3.84759,-16.582344 -4.11509,-3.942509 -12.84618,-4.775504 -11.78663,-1.124509 2.72197,9.379316 3.09702,12.289126 1.96705,15.261173 -0.66811,1.757286 -1.21476,3.429912 -1.21476,3.716947 0,1.121861 3.88938,0.433866 7.18675,-1.271267 z m 70.31626,-12.732161 0.10296,-10.292557 -8.97087,2.76782 c -4.93398,1.522301 -13.23964,3.391998 -18.45705,4.154884 -5.21741,0.762885 -9.15425,1.726386 -8.74855,2.141113 1.3091,1.338207 32.30926,12.007384 34.17045,11.76028 1.43223,-0.190153 1.82105,-2.341946 1.90301,-10.53154 z M 785.52,41.280002 c -0.42707,-1.11293 -1.0465,-1.753508 -1.3765,-1.423508 -0.33,0.33 -0.25057,1.510578 0.1765,2.623508 0.42707,1.112929 1.0465,1.753507 1.3765,1.423507 0.33,-0.33 0.25057,-1.510578 -0.1765,-2.623507 z M 868.8,24.037663 c 0,-1.606846 -0.57565,-2.14144 -1.8,-1.671613 -1.92515,0.738749 -2.29597,1.937977 -1,3.233951 1.51354,1.513537 2.8,0.795718 2.8,-1.562338 z"
       id="path201" />
  </g>
</svg>
